{
    "asset" : {
        "generator" : "Khronos glTF Blender I/O v1.6.16",
        "version" : "2.0"
    },
    "scene" : 0,
    "scenes" : [
        {
            "name" : "Scene",
            "nodes" : [
                0
            ]
        }
    ],
    "nodes" : [
        {
            "mesh" : 0,
            "name" : "Mesh_0",
            "scale" : [
                0.003000000026077032,
                0.003000000026077032,
                0.003000000026077032
            ],
            "translation" : [
                0,
                1.0625245571136475,
                0
            ]
        }
    ],
    "materials" : [
        {
            "name" : "material",
            "pbrMetallicRoughness" : {
                "baseColorTexture" : {
                    "index" : 0
                },
                "metallicFactor" : 0
            }
        }
    ],
    "meshes" : [
        {
            "name" : "Mesh_0",
            "primitives" : [
                {
                    "attributes" : {
                        "POSITION" : 0,
                        "NORMAL" : 1,
                        "TEXCOORD_0" : 2
                    },
                    "indices" : 3,
                    "material" : 0
                }
            ]
        }
    ],
    "textures" : [
        {
            "sampler" : 0,
            "source" : 0
        }
    ],
    "images" : [
        {
            "mimeType" : "image/jpeg",
            "name" : "Image_0",
            "uri" : "Image_0.jpg"
        }
    ],
    "accessors" : [
        {
            "bufferView" : 0,
            "componentType" : 5126,
            "count" : 221772,
            "max" : [
                499.5503845214844,
                211.75396728515625,
                295.71038818359375
            ],
            "min" : [
                -500.4496154785156,
                -278.5916442871094,
                -259.0037841796875
            ],
            "type" : "VEC3"
        },
        {
            "bufferView" : 1,
            "componentType" : 5126,
            "count" : 221772,
            "type" : "VEC3"
        },
        {
            "bufferView" : 2,
            "componentType" : 5126,
            "count" : 221772,
            "type" : "VEC2"
        },
        {
            "bufferView" : 3,
            "componentType" : 5125,
            "count" : 221772,
            "type" : "SCALAR"
        }
    ],
    "bufferViews" : [
        {
            "buffer" : 0,
            "byteLength" : 2661264,
            "byteOffset" : 0
        },
        {
            "buffer" : 0,
            "byteLength" : 2661264,
            "byteOffset" : 2661264
        },
        {
            "buffer" : 0,
            "byteLength" : 1774176,
            "byteOffset" : 5322528
        },
        {
            "buffer" : 0,
            "byteLength" : 887088,
            "byteOffset" : 7096704
        }
    ],
    "samplers" : [
        {
            "magFilter" : 9729,
            "minFilter" : 9987
        }
    ],
    "buffers" : [
        {
            "byteLength" : 7983792,
            "uri" : "storage_box.bin"
        }
    ]
}
